<svg xmlns="http://www.w3.org/2000/svg" width="157" height="49.607"><g data-name="logo"><text transform="translate(0 32)" font-size="29.953" font-family="FiraSans-Medium, Fira Sans" font-weight="500" letter-spacing=".18em"><tspan x="0" y="0">CONVERT</tspan></text><g data-name="Group 2"><path data-name="Rectangle 1 copy 2" d="M26.304 40.434h24.03v.81h-24.03z"/><path data-name="Rectangle 1 copy 4" d="M34.374 38.424h18.5v.81h-18.5z"/><path data-name="Rectangle 1 copy 5" d="M33.274 42.804h18.5v.81h-18.5z"/><path data-name="Shape 2" d="M55.903 37.661l1.189 2.157 2.419.464-1.684 1.8.306 2.444-2.23-1.046-2.23 1.046.306-2.444-1.684-1.8 2.419-.464 1.189-2.157"/></g><g data-name="Group 2 copy"><path data-name="Rectangle 1 copy 2" d="M106.934 40.434h24v.81h-24z"/><path data-name="Rectangle 1 copy 4" d="M104.404 38.424h18.5v.81h-18.5z"/><path data-name="Rectangle 1 copy 5" d="M105.524 42.804h18.47v.81h-18.47z"/><path data-name="Shape 2" d="M101.369 37.661l-1.189 2.157-2.419.464 1.684 1.8-.306 2.444 2.23-1.046 2.23 1.046-.306-2.444 1.684-1.8-2.419-.464-1.189-2.157"/></g><text transform="translate(62.303 45.607)" font-size="13.581" font-family="SourceSansPro-Black, Source Sans Pro" font-weight="800" letter-spacing=".2em" data-name="Group 1"><tspan x="0" y="0">CCD</tspan></text></g><path data-name="Color Overlay" d="M73.032 41.261a4.3 4.3 0 0 1 4.264-4.644 3.9 3.9 0 0 1 2.743 1.167l-1.222 1.494a2.156 2.156 0 0 0-1.467-.652c-1.032 0-1.929.95-1.929 2.553 0 1.657.76 2.58 1.9 2.58a2.208 2.208 0 0 0 1.6-.76l1.222 1.466a3.724 3.724 0 0 1-2.907 1.3c-2.252.005-4.204-1.489-4.204-4.504zm-10.131 0a4.3 4.3 0 0 1 4.264-4.644 3.9 3.9 0 0 1 2.743 1.167l-1.224 1.494a2.156 2.156 0 0 0-1.467-.652c-1.032 0-1.929.95-1.929 2.553 0 1.657.761 2.58 1.9 2.58a2.207 2.207 0 0 0 1.6-.76l1.222 1.466a3.723 3.723 0 0 1-2.906 1.3c-2.247.005-4.203-1.489-4.203-4.504zm21.183 4.343v-8.827h2.607c2.689 0 4.536 1.249 4.536 4.373s-1.847 4.454-4.4 4.454zm2.336-1.874h.136c1.276 0 2.281-.517 2.281-2.58s-1.005-2.5-2.281-2.5h-.136zm14.946-.256l-2.23 1.046.306-2.444-1.684-1.8 2.419-.464 1.189-2.156 1.189 2.156 2.419.464-1.684 1.8.306 2.444zm-45.465 0l-2.229 1.046.305-2.444-1.684-1.8 2.419-.464 1.189-2.156 1.19 2.156 2.418.464-1.684 1.8.306 2.444zm49.621.137v-.807h18.47v.81zm-72.25 0v-.807h18.5v.81zm73.661-2.371v-.81h24v.81zm-80.63 0v-.81h24.03v.81zm78.1-2.01v-.81h18.5v.81zm-70.03 0v-.81h18.5v.81zM23.094 21.666c0-6.8 3.534-10.813 9.076-10.813s9.046 3.864 9.046 10.783c0 6.829-3.5 10.813-9.046 10.813s-9.076-3.864-9.076-10.783zm4.163 0c0 5.571 1.886 7.758 4.912 7.758 3.085 0 4.883-2.187 4.883-7.788 0-5.541-1.768-7.758-4.883-7.758-3.085 0-4.912 2.217-4.912 7.788zm-25.973-.062c0-6.95 3.954-10.753 8.987-10.753a8.652 8.652 0 0 1 6.11 2.186l-2.033 2.367a5.731 5.731 0 0 0-3.834-1.5c-2.846 0-5.062 2.1-5.062 7.7 0 5.451 2.157 7.668 5.122 7.668a6.744 6.744 0 0 0 4.194-1.738l1.857 2.4a8.709 8.709 0 0 1-6.23 2.516c-5.363-.001-9.111-3.804-9.111-10.846zm145 10.393V14.448h-5.571v-3.144h15.371l-.419 3.146h-5.392v17.554zm-15.845 0l-4.583-8.3h-2.516v8.3h-3.954V11.304h6.17c5.421 0 8.207 1.977 8.207 6.08 0 2.815-1.378 4.493-4.194 5.6l5.422 9.015zm-7.1-11.142h2.456c2.456 0 3.834-.989 3.834-3.475 0-2.246-1.288-3.2-4.163-3.2h-2.127zM98.125 32.004v-20.7h12.011l-.419 2.936h-7.638v5.781h6.65v2.935h-6.65v6.08h8.177v2.968zm-18.541 0l-6.32-20.7h4.253l4.493 17.193 4.374-17.193h4.044l-6.14 20.7zm-19.11 0l-7.1-16.744a65.791 65.791 0 0 1 .539 8.3v8.444h-3.595v-20.7h5l7.219 16.773a51.162 51.162 0 0 1-.539-7.069v-9.704h3.594v20.7z" fill="#fff"/></svg>