<svg xmlns="http://www.w3.org/2000/svg" width="157" height="49.607" viewBox="0 0 157 49.607">
  <g id="logo" transform="translate(-721.316 -79.196)">
    <g id="logo-2" data-name="logo">
      <text id="CONVERT" transform="translate(721.316 111.196)" font-size="29.953" font-family="FiraSans-Medium, Fira Sans" font-weight="500" letter-spacing="0.18em"><tspan x="0" y="0">CONVERT</tspan></text>
      <g id="Group_2" data-name="Group 2">
        <rect id="Rectangle_1_copy_2" data-name="Rectangle 1 copy 2" width="24.03" height="0.81" transform="translate(747.62 119.63)"/>
        <rect id="Rectangle_1_copy_4" data-name="Rectangle 1 copy 4" width="18.5" height="0.81" transform="translate(755.69 117.62)"/>
        <rect id="Rectangle_1_copy_5" data-name="Rectangle 1 copy 5" width="18.5" height="0.81" transform="translate(754.59 122)"/>
        <path id="Shape_2" data-name="Shape 2" d="M777.219,116.857l1.189,2.157,2.419.464-1.684,1.8.306,2.444-2.23-1.046-2.23,1.046.306-2.444-1.684-1.8,2.419-.464,1.189-2.157"/>
      </g>
      <g id="Group_2_copy" data-name="Group 2 copy">
        <rect id="Rectangle_1_copy_2-2" data-name="Rectangle 1 copy 2" width="24" height="0.81" transform="translate(828.25 119.63)"/>
        <rect id="Rectangle_1_copy_4-2" data-name="Rectangle 1 copy 4" width="18.5" height="0.81" transform="translate(825.72 117.62)"/>
        <rect id="Rectangle_1_copy_5-2" data-name="Rectangle 1 copy 5" width="18.47" height="0.81" transform="translate(826.84 122)"/>
        <path id="Shape_2-2" data-name="Shape 2" d="M822.685,116.857l-1.189,2.157-2.419.464,1.684,1.8-.306,2.444,2.23-1.046,2.23,1.046-.306-2.444,1.684-1.8-2.419-.464-1.189-2.157"/>
      </g>
      <g id="Group_1" data-name="Group 1">
        <text id="CCD" transform="translate(783.619 124.803)" font-size="13.581" font-family="SourceSansPro-Black, Source Sans Pro" font-weight="800" letter-spacing="0.2em"><tspan x="0" y="0">CCD</tspan></text>
      </g>
    </g>
    <path id="Color_Overlay" data-name="Color Overlay" d="M794.348,120.457a4.3,4.3,0,0,1,4.264-4.644,3.9,3.9,0,0,1,2.743,1.167l-1.222,1.494a2.156,2.156,0,0,0-1.467-.652c-1.032,0-1.929.95-1.929,2.553,0,1.657.76,2.58,1.9,2.58a2.208,2.208,0,0,0,1.6-.76l1.222,1.466a3.724,3.724,0,0,1-2.907,1.3C796.3,124.966,794.348,123.472,794.348,120.457Zm-10.131,0a4.3,4.3,0,0,1,4.264-4.644,3.9,3.9,0,0,1,2.743,1.167L790,118.474a2.156,2.156,0,0,0-1.467-.652c-1.032,0-1.929.95-1.929,2.553,0,1.657.761,2.58,1.9,2.58a2.207,2.207,0,0,0,1.6-.76l1.222,1.466a3.723,3.723,0,0,1-2.906,1.3C786.173,124.966,784.217,123.472,784.217,120.457ZM805.4,124.8v-8.827h2.607c2.689,0,4.536,1.249,4.536,4.373s-1.847,4.454-4.4,4.454Zm2.336-1.874h.136c1.276,0,2.281-.517,2.281-2.58s-1.005-2.5-2.281-2.5h-.136Zm14.946-.256-2.23,1.046.306-2.444-1.684-1.8,2.419-.464,1.189-2.156,1.189,2.156,2.419.464-1.684,1.8.306,2.444Zm-45.465,0-2.229,1.046.305-2.444-1.684-1.8,2.419-.464,1.189-2.156,1.19,2.156,2.418.464-1.684,1.8.306,2.444Zm49.621.137V122h18.47v.81Zm-72.25,0V122h18.5v.81Zm73.661-2.371v-.81h24v.81Zm-80.63,0v-.81h24.03v.81Zm78.1-2.01v-.81h18.5v.81Zm-70.03,0v-.81h18.5v.81ZM744.41,100.862c0-6.8,3.534-10.813,9.076-10.813s9.046,3.864,9.046,10.783c0,6.829-3.5,10.813-9.046,10.813S744.41,107.781,744.41,100.862Zm4.163,0c0,5.571,1.886,7.758,4.912,7.758,3.085,0,4.883-2.187,4.883-7.788,0-5.541-1.768-7.758-4.883-7.758C750.4,93.074,748.573,95.291,748.573,100.862ZM722.6,100.8c0-6.95,3.954-10.753,8.987-10.753a8.652,8.652,0,0,1,6.11,2.186L735.664,94.6a5.731,5.731,0,0,0-3.834-1.5c-2.846,0-5.062,2.1-5.062,7.7,0,5.451,2.157,7.668,5.122,7.668a6.744,6.744,0,0,0,4.194-1.738l1.857,2.4a8.709,8.709,0,0,1-6.23,2.516C726.348,111.645,722.6,107.842,722.6,100.8Zm145,10.393V93.644h-5.571V90.5H877.4l-.419,3.146h-5.392V111.2Zm-15.845,0-4.583-8.3h-2.516v8.3h-3.954V90.5h6.17c5.421,0,8.207,1.977,8.207,6.08,0,2.815-1.378,4.493-4.194,5.6l5.422,9.015Zm-7.1-11.142h2.456c2.456,0,3.834-.989,3.834-3.475,0-2.246-1.288-3.2-4.163-3.2h-2.127ZM819.441,111.2V90.5h12.011l-.419,2.936h-7.638v5.781h6.65v2.935h-6.65v6.08h8.177V111.2Zm-18.541,0-6.32-20.7h4.253l4.493,17.193L807.7,90.5h4.044l-6.14,20.7Zm-19.11,0-7.1-16.744a65.791,65.791,0,0,1,.539,8.3V111.2h-3.595V90.5h5l7.219,16.773a51.162,51.162,0,0,1-.539-7.069V90.5h3.594v20.7Z" fill="#fff"/>
  </g>
</svg>
